<svg xmlns="http://www.w3.org/2000/svg" version="1.1" xmlns:xlink="http://www.w3.org/1999/xlink" xmlns:svgjs="http://svgjs.com/svgjs" width="570" height="100" overflow="visible"><g class="signage-logo" opacity="1"><defs id="SvgjsDefs1020"></defs><g id="SvgjsG1021" transform="scale(1.3914442542189587)" opacity="1"><g id="SvgjsG1022" class="q4FvjdM8KQ" transform="translate(-3.552713678800501e-15, 3.274958970678199e-9) scale(0.6374907620695786)" stroke="#000000" stroke-width="1.568650182088216px" light-content="false" non-strokable="false" fill="#127cf8"><path d="M82.354 0L69.118 3.861l6.434 17.463 12.683-3.677zM61.031 6.067L43.75 11.029l.368.736 3.309 9.007 2.941 7.721 17.28-4.963zm-25.185 7.168l-15.257 4.412 6.618 17.464 15.257-4.412-3.86-9.927zm-23.162 6.618L0 23.53l5.883 17.647 13.235-3.86zM5.883 41.177v52.941A5.869 5.869 0 0 0 11.765 100h76.47a5.87 5.87 0 0 0 5.884-5.882V41.177H5.883zm76.471 29.411H17.647V52.942h64.706v17.646z"></path></g><g id="SvgjsG1023" class="text" transform="translate(242.82390216865682, 60.71359389796743) scale(1)" stroke="#000000" stroke-width="1px" light-content="false" fill="#157af1"><path d="M-116.99 -45.52C-118.05 -46.63 -119.42 -47.18 -121.11 -47.18C-123.45 -47.18 -125.32 -45.85 -126.69 -43.19L-138.85 -20.2L-151.08 -43.19C-151.74 -44.48 -152.56 -45.46 -153.53 -46.15C-154.51 -46.84 -155.59 -47.18 -156.79 -47.18C-158.47 -47.18 -159.86 -46.63 -160.94 -45.52C-162.03 -44.41 -162.57 -42.97 -162.57 -41.2L-162.57 -5.05C-162.57 -3.37 -162.07 -2.04 -161.08 -1.06C-160.08 -0.09 -158.81 0.4 -157.26 0.4C-155.66 0.4 -154.37 -0.1 -153.37 -1.1C-152.37 -2.09 -151.87 -3.41 -151.87 -5.05L-151.87 -24.19L-144.36 -10.63C-143.61 -9.21 -142.81 -8.21 -141.97 -7.61C-141.13 -7.01 -140.13 -6.71 -138.98 -6.71C-137.83 -6.71 -136.83 -7.01 -135.99 -7.61C-135.15 -8.21 -134.35 -9.21 -133.6 -10.63L-126.02 -24.59L-126.02 -5.05C-126.02 -3.37 -125.53 -2.04 -124.53 -1.06C-123.53 -0.09 -122.26 0.4 -120.71 0.4C-119.11 0.4 -117.83 -0.09 -116.85 -1.06C-115.88 -2.04 -115.39 -3.37 -115.39 -5.05L-115.39 -41.2C-115.39 -42.97 -115.92 -44.41 -116.99 -45.52Z M-101.74 -4.59C-98.21 -1.13 -93.06 0.6 -86.29 0.6C-79.55 0.6 -74.4 -1.14 -70.84 -4.62C-67.27 -8.1 -65.49 -13.14 -65.49 -19.74L-65.49 -41.2C-65.49 -43.02 -66.04 -44.47 -67.15 -45.55C-68.26 -46.64 -69.72 -47.18 -71.53 -47.18C-73.35 -47.18 -74.8 -46.64 -75.89 -45.55C-76.97 -44.47 -77.51 -43.02 -77.51 -41.2L-77.51 -19.27C-77.51 -15.9 -78.27 -13.31 -79.77 -11.5C-81.28 -9.68 -83.45 -8.77 -86.29 -8.77C-89.12 -8.77 -91.29 -9.68 -92.8 -11.5C-94.3 -13.31 -95.06 -15.9 -95.06 -19.27L-95.06 -41.2C-95.06 -43.02 -95.6 -44.47 -96.69 -45.55C-97.77 -46.64 -99.22 -47.18 -101.04 -47.18C-102.85 -47.18 -104.31 -46.64 -105.39 -45.55C-106.48 -44.47 -107.02 -43.02 -107.02 -41.2L-107.02 -19.74C-107.02 -13.09 -105.26 -8.04 -101.74 -4.59Z M-21.56 -46.38C-22.45 -45.85 -23.14 -45.05 -23.62 -43.99L-36.65 -15.68L-49.74 -43.99C-50.23 -45.05 -50.92 -45.85 -51.83 -46.38C-52.74 -46.91 -53.73 -47.18 -54.79 -47.18C-56.43 -47.18 -57.91 -46.66 -59.24 -45.62C-60.57 -44.58 -61.23 -43.3 -61.23 -41.8C-61.23 -40.96 -61.06 -40.18 -60.7 -39.47L-43.16 -3.26C-42.58 -2.06 -41.72 -1.14 -40.57 -0.5C-39.42 0.14 -38.18 0.47 -36.85 0.47C-35.52 0.47 -34.28 0.14 -33.13 -0.5C-31.97 -1.14 -31.11 -2.06 -30.53 -3.26L-12.99 -39.47C-12.59 -40.27 -12.39 -41.04 -12.39 -41.8C-12.39 -43.35 -13.04 -44.63 -14.32 -45.65C-15.6 -46.67 -17.04 -47.18 -18.64 -47.18C-19.7 -47.18 -20.68 -46.91 -21.56 -46.38Z M-6.25 -1.23C-5.16 -0.14 -3.69 0.4 -1.83 0.4C0.08 0.4 1.58 -0.14 2.69 -1.23C3.8 -2.31 4.35 -3.79 4.35 -5.65L4.35 -41.2C4.35 -43.02 3.8 -44.47 2.69 -45.55C1.58 -46.64 0.08 -47.18 -1.83 -47.18C-3.69 -47.18 -5.16 -46.64 -6.25 -45.55C-7.33 -44.47 -7.87 -43.02 -7.87 -41.2L-7.87 -5.65C-7.87 -3.79 -7.33 -2.31 -6.25 -1.23Z M25.12 -1.3C26.25 -0.21 27.74 0.33 29.6 0.33C31.46 0.33 32.96 -0.21 34.09 -1.3C35.22 -2.38 35.78 -3.83 35.78 -5.65L35.78 -36.95L45.15 -36.95C47.1 -36.95 48.55 -37.36 49.51 -38.18C50.46 -39 50.93 -40.25 50.93 -41.93C50.93 -43.61 50.46 -44.85 49.51 -45.65C48.55 -46.45 47.1 -46.85 45.15 -46.85L14.05 -46.85C12.11 -46.85 10.65 -46.45 9.7 -45.65C8.75 -44.85 8.27 -43.61 8.27 -41.93C8.27 -40.25 8.75 -39 9.7 -38.18C10.65 -37.36 12.11 -36.95 14.05 -36.95L23.42 -36.95L23.42 -5.65C23.42 -3.83 23.99 -2.38 25.12 -1.3Z M56.48 -1.23C57.57 -0.14 59.04 0.4 60.9 0.4C62.81 0.4 64.31 -0.14 65.42 -1.23C66.53 -2.31 67.08 -3.79 67.08 -5.65L67.08 -41.2C67.08 -43.02 66.53 -44.47 65.42 -45.55C64.31 -46.64 62.81 -47.18 60.9 -47.18C59.04 -47.18 57.57 -46.64 56.48 -45.55C55.4 -44.47 54.86 -43.02 54.86 -41.2L54.86 -5.65C54.86 -3.79 55.4 -2.31 56.48 -1.23Z M121.31 -45.52C120.24 -46.63 118.87 -47.18 117.19 -47.18C114.84 -47.18 112.98 -45.85 111.6 -43.19L99.44 -20.2L87.22 -43.19C86.55 -44.48 85.73 -45.46 84.76 -46.15C83.78 -46.84 82.7 -47.18 81.5 -47.18C79.82 -47.18 78.43 -46.63 77.35 -45.52C76.26 -44.41 75.72 -42.97 75.72 -41.2L75.72 -5.05C75.72 -3.37 76.22 -2.04 77.22 -1.06C78.21 -0.09 79.49 0.4 81.04 0.4C82.63 0.4 83.93 -0.1 84.92 -1.1C85.92 -2.09 86.42 -3.41 86.42 -5.05L86.42 -24.19L93.93 -10.63C94.68 -9.21 95.48 -8.21 96.32 -7.61C97.16 -7.01 98.16 -6.71 99.31 -6.71C100.46 -6.71 101.46 -7.01 102.3 -7.61C103.14 -8.21 103.94 -9.21 104.69 -10.63L112.27 -24.59L112.27 -5.05C112.27 -3.37 112.77 -2.04 113.76 -1.06C114.76 -0.09 116.03 0.4 117.58 0.4C119.18 0.4 120.46 -0.09 121.44 -1.06C122.41 -2.04 122.9 -3.37 122.9 -5.05L122.9 -41.2C122.9 -42.97 122.37 -44.41 121.31 -45.52Z M133 -1.46C133.98 -0.49 135.37 0 137.19 0L160.18 0C162.08 0 163.52 -0.4 164.5 -1.2C165.47 -1.99 165.96 -3.15 165.96 -4.65C165.96 -7.84 164.03 -9.44 160.18 -9.44L143.43 -9.44L143.43 -19.14L158.85 -19.14C160.76 -19.14 162.2 -19.54 163.17 -20.33C164.14 -21.13 164.63 -22.28 164.63 -23.79C164.63 -26.93 162.7 -28.51 158.85 -28.51L143.43 -28.51L143.43 -37.41L160.18 -37.41C164.03 -37.41 165.96 -39.01 165.96 -42.2C165.96 -43.7 165.47 -44.85 164.5 -45.65C163.52 -46.45 162.08 -46.85 160.18 -46.85L137.19 -46.85C135.37 -46.85 133.98 -46.36 133 -45.39C132.03 -44.41 131.54 -43.02 131.54 -41.2L131.54 -5.65C131.54 -3.83 132.03 -2.44 133 -1.46Z"></path></g></g></g></svg>